<svg width="34" height="34" viewBox="0 0 34 34" fill="none" xmlns="http://www.w3.org/2000/svg">
<path fill-rule="evenodd" clip-rule="evenodd" d="M17 34C26.3888 34 34 26.3888 34 17C34 7.61116 26.3888 0 17 0C7.61116 0 0 7.61116 0 17C0 26.3888 7.61116 34 17 34ZM21.0695 12.2522H19.3738C18.8119 12.2522 18.3564 12.7076 18.3564 13.2696V14.9652H21.0695C21.2716 14.9652 21.4289 15.1409 21.4066 15.3417L21.1427 17.7156C21.1237 17.8875 20.9786 18.0174 20.8056 18.0174H18.3564V24.4609C18.3564 24.6481 18.2045 24.8 18.0173 24.8H15.6434C15.4562 24.8 15.3042 24.6481 15.3042 24.4609V18.0174H12.9303C12.7431 18.0174 12.5912 17.8655 12.5912 17.6783V15.3044C12.5912 15.1171 12.7431 14.9652 12.9303 14.9652H15.3042V12.7161C15.3042 10.448 16.6608 9.2 18.7434 9.2C19.5013 9.2 20.5553 9.25189 21.0949 9.29021C21.2719 9.30276 21.4086 9.45062 21.4086 9.62832V11.913C21.4086 12.1002 21.2567 12.2522 21.0695 12.2522Z" fill="white"/>
</svg>
