<svg width="34" height="34" viewBox="0 0 34 34" fill="none" xmlns="http://www.w3.org/2000/svg">
<path fill-rule="evenodd" clip-rule="evenodd" d="M17 34C26.3888 34 34 26.3888 34 17C34 7.61116 26.3888 0 17 0C7.61116 0 0 7.61116 0 17C0 26.3888 7.61116 34 17 34ZM13.6091 9C11.067 9 9 11.067 9 13.6091V19.9909C9 22.533 11.067 24.6 13.6091 24.6H19.9909C22.533 24.6 24.6 22.533 24.6 19.9909V13.6091C24.6 11.067 22.533 9 19.9909 9H13.6091ZM21.1936 11.5583C21.6601 11.5583 22.0417 11.9399 22.0417 12.4064C22.0417 12.8729 21.6601 13.2546 21.1936 13.2546C20.7271 13.2546 20.3454 12.8729 20.3454 12.4064C20.3454 11.9399 20.7271 11.5583 21.1936 11.5583ZM21.1935 16.8C21.1935 14.3755 19.2245 12.4065 16.8 12.4065C14.3755 12.4065 12.4065 14.3755 12.4065 16.8C12.4065 19.2245 14.3755 21.1935 16.8 21.1935C19.2245 21.1935 21.1935 19.2245 21.1935 16.8ZM16.8 13.6091C15.0414 13.6091 13.6091 15.0414 13.6091 16.8C13.6091 18.5586 15.0414 19.9909 16.8 19.9909C18.5586 19.9909 19.9909 18.5586 19.9909 16.8C19.9909 15.0414 18.5586 13.6091 16.8 13.6091Z" fill="white"/>
</svg>
