<svg width="102" height="14" viewBox="0 0 102 14" fill="none" xmlns="http://www.w3.org/2000/svg">
<path fill-rule="evenodd" clip-rule="evenodd" d="M65.2608 11.0677L64.9308 9.54461C64.8038 9.79846 64.6388 10.0396 64.4358 10.2554C64.2327 10.4711 63.9915 10.6615 63.725 10.8138C63.4585 10.9661 63.1538 11.0931 62.8238 11.1819C62.4938 11.2708 62.1385 11.3088 61.7704 11.3088C61.2246 11.3088 60.7296 11.2073 60.2727 11.0042C59.8285 10.8011 59.4477 10.5219 59.1304 10.1538C58.8131 9.78577 58.5719 9.35423 58.3942 8.83384C58.2165 8.32615 58.1404 7.755 58.1404 7.12038C58.1404 6.47307 58.2292 5.88923 58.3942 5.38154C58.5719 4.86115 58.8131 4.42961 59.1304 4.07423C59.4477 3.71884 59.8285 3.43961 60.2727 3.24923C60.7169 3.05884 61.2246 2.95731 61.7831 2.95731C62.1511 2.95731 62.4938 2.99538 62.8111 3.08423C63.1285 3.16038 63.4077 3.27461 63.6488 3.41423C63.89 3.55384 64.1058 3.70615 64.2835 3.89654C64.4612 4.07423 64.6008 4.26461 64.7023 4.46769V0H67.0377V11.0677H65.2608ZM64.7023 7.14577C64.7023 6.70154 64.6515 6.33346 64.5373 6.01615C64.4231 5.69884 64.2708 5.445 64.0804 5.24192C63.89 5.03884 63.6615 4.88654 63.4077 4.79769C63.1538 4.70884 62.8873 4.65807 62.6081 4.65807C62.3035 4.65807 62.0242 4.70884 61.7704 4.79769C61.5165 4.89923 61.3008 5.03884 61.1231 5.24192C60.9454 5.445 60.8058 5.69884 60.7042 6.01615C60.6027 6.33346 60.5519 6.70154 60.5519 7.13307C60.5519 7.55192 60.6027 7.9073 60.7042 8.21192C60.8058 8.51653 60.9454 8.78307 61.1231 8.98615C61.3008 9.18923 61.5165 9.35423 61.7704 9.45576C62.0242 9.5573 62.3035 9.60807 62.6208 9.60807C62.9254 9.60807 63.2173 9.5573 63.4711 9.44307C63.725 9.34153 63.9535 9.17653 64.1311 8.97346C64.3088 8.77038 64.4612 8.50384 64.5627 8.19923C64.6515 7.89461 64.7023 7.53923 64.7023 7.14577ZM10.2561 4.15038V11.055H12.5661V0.101538H9.41845L6.80384 6.85384L6.34692 8.46577L5.90269 6.85384L3.28807 0.101538H0.140381V11.0677H2.28538V4.13769L2.23461 2.76692L2.70423 4.13769L5.30615 11.0677H7.23538L9.8373 4.125L10.3069 2.79231L10.2561 4.15038ZM14.0258 3.21115L17.6811 11.0042L17.5923 11.2835C17.3385 11.9561 16.9196 12.2988 16.3485 12.2988C16.0946 12.2988 15.8535 12.2608 15.6504 12.1846C15.4346 12.1211 15.2569 12.0323 15.1046 11.9561L14.5715 13.0858C14.6731 13.1746 14.8 13.2761 14.9523 13.3777C15.1046 13.4792 15.2823 13.5681 15.4727 13.6569C15.6631 13.7458 15.8661 13.8219 16.0819 13.8727C16.2977 13.9361 16.5261 13.9615 16.7673 13.9615C17.0846 13.9615 17.3892 13.9235 17.6684 13.8219C17.9477 13.7204 18.2015 13.5681 18.4427 13.3523C18.6838 13.1365 18.9123 12.8573 19.1281 12.5146C19.3565 12.1719 19.5723 11.7404 19.7881 11.2454L23.2023 3.21115H20.7781L18.7346 8.96077L16.5642 3.21115H14.0258ZM31.0823 4.85308L30.765 3.24115H29.1404V13.8519H31.4758V9.84115C31.5646 10.0442 31.7042 10.2346 31.8819 10.4123C32.0596 10.6027 32.2754 10.755 32.5165 10.8946C32.7577 11.0342 33.0369 11.1485 33.3542 11.2246C33.6588 11.3135 34.0015 11.3515 34.3823 11.3515C34.9281 11.3515 35.4358 11.25 35.88 11.0596C36.3242 10.8692 36.705 10.59 37.0223 10.2346C37.3396 9.87923 37.5808 9.44769 37.7585 8.92731C37.9235 8.40692 38.0123 7.82307 38.0123 7.17577C38.0123 6.55384 37.9235 5.98269 37.7585 5.475C37.5935 4.95461 37.3523 4.52308 37.035 4.155C36.7177 3.78692 36.3369 3.50769 35.8927 3.30462C35.4485 3.10154 34.9535 3 34.395 3C34.0269 3 33.6715 3.03808 33.3288 3.12692C32.9861 3.21577 32.6815 3.34269 32.3896 3.495C32.0977 3.66 31.8438 3.85038 31.6281 4.07885C31.4123 4.30731 31.2219 4.56115 31.0823 4.85308ZM31.6281 8.29269C31.5138 7.97538 31.4631 7.60731 31.4631 7.16307C31.4631 6.75692 31.5138 6.41423 31.6281 6.10961C31.7169 5.805 31.8692 5.53846 32.0469 5.33538C32.2246 5.13231 32.4531 4.96731 32.7069 4.86577C32.9735 4.75154 33.2527 4.70077 33.57 4.70077C33.8873 4.70077 34.1665 4.75154 34.4204 4.85308C34.6742 4.95461 34.89 5.11961 35.0677 5.32269C35.2454 5.52577 35.385 5.79231 35.4865 6.09692C35.5881 6.40154 35.6388 6.75692 35.6388 7.17577C35.6388 7.60731 35.5881 7.97538 35.4865 8.29269C35.385 8.61 35.2327 8.86384 35.055 9.06692C34.8773 9.27 34.6615 9.40961 34.4077 9.51115C34.1538 9.6 33.8746 9.65077 33.57 9.65077C33.2781 9.65077 33.0115 9.6 32.7577 9.51115C32.5038 9.4223 32.2754 9.27 32.085 9.06692C31.8946 8.86384 31.7423 8.61 31.6281 8.29269ZM39.88 3.21115V11.0677H42.2281V7.50115C42.2281 7.18384 42.2661 6.86654 42.3423 6.53654C42.4184 6.20654 42.5327 5.90192 42.6977 5.63538C42.8627 5.35615 43.0657 5.14038 43.3069 4.96269C43.5607 4.79769 43.8527 4.70884 44.1827 4.70884C44.5254 4.70884 44.8046 4.77231 45.0077 4.89923C45.1981 5.02615 45.3504 5.20384 45.4519 5.41961C45.5534 5.63538 45.6169 5.90192 45.6296 6.20654C45.6423 6.51115 45.6423 6.84115 45.6296 7.19654L47.4573 7.01884C47.5081 6.71423 47.5461 6.40961 47.5588 6.09231C47.5715 5.775 47.5588 5.47038 47.5081 5.16577C47.4573 4.86115 47.3684 4.58192 47.2542 4.31538C47.14 4.04884 46.975 3.82038 46.7592 3.61731C46.5434 3.41423 46.2769 3.24923 45.9469 3.135C45.6296 3.02077 45.2361 2.95731 44.7792 2.95731C44.4492 2.95731 44.1319 3.00808 43.84 3.12231C43.5481 3.23654 43.2688 3.38884 43.0277 3.57923C42.7865 3.78231 42.5707 4.01077 42.3931 4.26461C42.2154 4.53115 42.0757 4.81038 41.9996 5.10231L41.5427 3.21115H39.88ZM50.8438 11.0723C51.3896 11.2627 51.9988 11.3515 52.6461 11.3515C53.2935 11.3515 53.89 11.2627 54.4485 11.0596C54.9942 10.8819 55.4765 10.6027 55.87 10.2473C56.2761 9.89192 56.5808 9.46038 56.8092 8.94C57.025 8.41961 57.1392 7.83577 57.1392 7.16307C57.1392 6.50308 57.025 5.91923 56.7965 5.39885C56.5681 4.87846 56.2508 4.44692 55.8573 4.09154C55.4638 3.73615 54.9815 3.46962 54.4358 3.27923C53.89 3.08885 53.2935 3 52.6461 3C51.9861 3 51.3896 3.08885 50.8438 3.27923C50.2981 3.45692 49.8285 3.73615 49.4223 4.09154C49.0288 4.44692 48.7115 4.87846 48.4831 5.39885C48.2546 5.91923 48.1404 6.51577 48.1404 7.17577C48.1404 7.84846 48.2419 8.43231 48.4704 8.95269C48.6988 9.47307 49.0035 9.90461 49.4096 10.26C49.8158 10.6154 50.2981 10.8819 50.8438 11.0723ZM53.4965 9.51115C53.2427 9.61269 52.9508 9.66346 52.6461 9.66346C52.3288 9.66346 52.0369 9.61269 51.7831 9.51115C51.5292 9.40961 51.3008 9.25731 51.1231 9.05423C50.9327 8.85115 50.7931 8.59731 50.6915 8.28C50.59 7.96269 50.5392 7.59461 50.5392 7.17577C50.5392 6.75692 50.59 6.38884 50.6915 6.07154C50.7931 5.75423 50.9454 5.50038 51.1231 5.29731C51.3008 5.09423 51.5292 4.94192 51.7831 4.84038C52.0496 4.73885 52.3288 4.68808 52.6461 4.68808C52.9508 4.68808 53.2427 4.73885 53.4965 4.84038C53.7504 4.94192 53.9661 5.09423 54.1565 5.29731C54.3469 5.50038 54.4865 5.75423 54.5881 6.07154C54.6896 6.38884 54.7404 6.75692 54.7404 7.17577C54.7404 7.59461 54.6896 7.96269 54.5881 8.28C54.4865 8.59731 54.3469 8.85115 54.1565 9.05423C53.9788 9.25731 53.7504 9.40961 53.4965 9.51115ZM72.1946 3.21115V7.36154C72.1946 7.64077 72.22 7.92 72.258 8.17384C72.2961 8.44038 72.385 8.66884 72.4992 8.88461C72.6134 9.08769 72.7911 9.25269 72.9942 9.37961C73.21 9.50653 73.4892 9.57 73.8192 9.57C74.0857 9.57 74.3396 9.50653 74.6061 9.3923C74.86 9.26538 75.0884 9.08769 75.2915 8.85923C75.4946 8.63077 75.6596 8.33884 75.7738 7.99615C75.888 7.65346 75.9515 7.26 75.9515 6.80307V3.21115H78.2742V11.055H76.675L76.2942 9.11307C76.1546 9.46846 75.9642 9.77307 75.7357 10.0523C75.4946 10.3315 75.228 10.56 74.9361 10.7504C74.6442 10.9408 74.3269 11.0804 73.9842 11.1692C73.6415 11.2708 73.2988 11.3088 72.9561 11.3088C72.3596 11.3088 71.8646 11.2073 71.4711 11.0042C71.0777 10.8011 70.7604 10.5346 70.5192 10.1919C70.278 9.84923 70.113 9.45576 70.0115 8.99884C69.91 8.54192 69.8592 8.0723 69.8592 7.5773V3.21115H72.1946ZM88.2884 9.02423L86.6003 8.31346H86.5496C86.3846 8.71961 86.1434 9.03692 85.8007 9.26538C85.458 9.49384 85.0519 9.60807 84.5823 9.60807C84.2523 9.60807 83.9603 9.5573 83.6938 9.45576C83.4273 9.35423 83.1988 9.20192 83.0211 8.99884C82.8434 8.79576 82.7038 8.54192 82.6023 8.22461C82.5007 7.9073 82.45 7.53923 82.45 7.10769C82.45 6.71423 82.5007 6.37154 82.5896 6.06692C82.6784 5.76231 82.818 5.50846 82.983 5.29269C83.148 5.08961 83.3638 4.92461 83.605 4.81038C83.8461 4.69615 84.1253 4.64538 84.43 4.64538C85.0011 4.64538 85.4453 4.81038 85.7626 5.15307C86.08 5.48307 86.2703 5.96538 86.3338 6.57461L86.4227 6.6L88.2757 6.20654C88.2377 5.71154 88.1107 5.25461 87.895 4.84846C87.6792 4.455 87.3873 4.11231 87.0446 3.83308C86.7019 3.55384 86.2957 3.33808 85.8388 3.18577C85.3819 3.03346 84.8869 2.95731 84.3665 2.95731C83.7065 2.95731 83.1227 3.04615 82.5896 3.23654C82.0565 3.41423 81.6123 3.69346 81.2315 4.04884C80.8507 4.40423 80.5588 4.84846 80.3557 5.36884C80.1527 5.88923 80.0511 6.48577 80.0511 7.14577C80.0511 7.80577 80.1527 8.38961 80.3684 8.91C80.5842 9.43038 80.8761 9.86192 81.2696 10.2173C81.6503 10.5727 82.12 10.8392 82.6657 11.0296C83.2115 11.22 83.808 11.3088 84.468 11.3088C84.9757 11.3088 85.4327 11.2454 85.8515 11.1311C86.2703 11.0042 86.6384 10.8392 86.9557 10.6361C87.273 10.4331 87.5396 10.1919 87.768 9.91269C87.9965 9.63346 88.1615 9.34153 88.2884 9.02423ZM97.4665 9.06692L95.8673 8.41961V8.40692H95.8165C95.6261 8.88923 95.3469 9.24461 94.9788 9.46038C94.6108 9.67615 94.1919 9.79038 93.7096 9.79038C93.3669 9.79038 93.0496 9.73961 92.7704 9.63807C92.4785 9.53654 92.2373 9.39692 92.0342 9.20654C91.8311 9.01615 91.6662 8.78769 91.5392 8.52115C91.425 8.25461 91.3488 7.95 91.3362 7.60731H97.6569V7.11231C97.6569 6.47769 97.5681 5.91923 97.3777 5.41154C97.1873 4.90385 96.9208 4.47231 96.5654 4.11692C96.21 3.76154 95.7785 3.48231 95.2708 3.29192C94.7631 3.10154 94.1792 3 93.5192 3C92.7958 3 92.1611 3.10154 91.6154 3.30462C91.0696 3.495 90.6127 3.77423 90.2446 4.14231C89.8765 4.49769 89.61 4.94192 89.4196 5.44961C89.2292 5.97 89.1404 6.54115 89.1404 7.16307C89.1404 7.79769 89.2419 8.36884 89.4323 8.87654C89.6227 9.38423 89.9019 9.82846 90.2827 10.1965C90.6635 10.5646 91.1331 10.8438 91.7042 11.0469C92.2627 11.25 92.9227 11.3515 93.6715 11.3515C94.56 11.3515 95.3088 11.1485 95.9308 10.755C96.5527 10.3615 97.0604 9.79038 97.4665 9.06692ZM95.3088 5.60192C95.385 5.84308 95.4358 6.10961 95.4485 6.40154H91.3615C91.3742 6.12231 91.4377 5.85577 91.5519 5.61461C91.6661 5.37346 91.8185 5.17038 91.9961 4.99269C92.1738 4.815 92.3896 4.68808 92.6435 4.58654C92.8846 4.49769 93.1765 4.44692 93.4811 4.44692C93.7985 4.44692 94.0777 4.49769 94.3188 4.58654C94.56 4.67538 94.7631 4.815 94.9281 4.98C95.0931 5.15769 95.22 5.36077 95.3088 5.60192ZM99.3688 8.58V11.0677H101.679V8.58H99.3688Z" fill="#E9856F"/>
</svg>
