<svg width="594" height="174" viewBox="0 0 594 174" fill="none" xmlns="http://www.w3.org/2000/svg">
<path d="M290.7 143.8V146.7H283.9V166.7H280.9V146.7H274.2V143.8H290.7Z" fill="white"/>
<path d="M304.9 150.4H307.7V166.7H304.9V163.9C303.5 166.1 301.4 167.1 298.7 167.1C296.4 167.1 294.5 166.3 292.9 164.6C291.3 162.9 290.5 160.9 290.5 158.5C290.5 156.1 291.3 154.1 292.9 152.4C294.5 150.7 296.5 149.9 298.7 149.9C301.4 149.9 303.5 151 304.9 153.1V150.4ZM299.1 164.4C300.8 164.4 302.1 163.8 303.2 162.7C304.3 161.6 304.9 160.2 304.9 158.5C304.9 156.8 304.3 155.5 303.2 154.3C302.1 153.1 300.7 152.6 299.1 152.6C297.5 152.6 296.1 153.2 295 154.3C293.9 155.4 293.3 156.8 293.3 158.5C293.3 160.2 293.9 161.5 295 162.7C296.1 163.8 297.5 164.4 299.1 164.4Z" fill="white"/>
<path d="M325.2 150.4V153.1H319.6V166.7H316.8V153.1H311.2V150.4H325.2Z" fill="white"/>
<path d="M335.6 156.2C337.2 156.2 338.6 156.7 339.7 157.7C340.8 158.7 341.3 159.9 341.3 161.5C341.3 163 340.8 164.3 339.7 165.3C338.6 166.3 337.3 166.8 335.6 166.8H328.7V150.5H331.5V156.4H335.6V156.2ZM335.6 164.1C336.4 164.1 337.1 163.9 337.6 163.4C338.2 162.9 338.4 162.3 338.4 161.5C338.4 160.7 338.1 160.1 337.6 159.6C337 159.1 336.4 158.9 335.6 158.9H331.5V164.1H335.6Z" fill="white"/>
<path d="M356.5 150.4V166.7H353.7V160.8H351.3L346.7 166.7H343.2L348 160.7C346.8 160.4 345.8 159.8 345 158.9C344.2 158 343.9 156.9 343.9 155.7C343.9 154.2 344.4 152.9 345.5 151.9C346.6 150.9 347.9 150.4 349.5 150.4H356.5ZM349.6 158.3H353.7V153H349.6C348.8 153 348.1 153.2 347.5 153.7C346.9 154.2 346.7 154.8 346.7 155.6C346.7 156.4 347 157 347.5 157.5C348.2 158 348.8 158.3 349.6 158.3Z" fill="white"/>
<path d="M373.1 150.4H375.9V166.7H373.1V159.9H364.6V166.7H361.8V150.4H364.6V157.2H373.1V150.4Z" fill="white"/>
<path d="M388.1 156.2C389.7 156.2 391.1 156.7 392.2 157.7C393.3 158.7 393.8 159.9 393.8 161.5C393.8 163 393.3 164.3 392.2 165.3C391.1 166.3 389.8 166.8 388.1 166.8H381.2V150.5H384V156.4H388.1V156.2ZM388.1 164.1C388.9 164.1 389.6 163.9 390.1 163.4C390.7 162.9 390.9 162.3 390.9 161.5C390.9 160.7 390.6 160.1 390.1 159.6C389.5 159.1 388.9 158.9 388.1 158.9H384.1V164.1H388.1ZM395.9 150.4H398.7V166.7H395.9V150.4Z" fill="white"/>
<path d="M435 143.8V166.7H432V148.8L424.5 161.3H424.1L416.6 148.9V166.8H413.6V143.9H417L424.3 156L431.6 143.9H435V143.8Z" fill="white"/>
<path d="M454.1 150.4H456.9V166.7H454.1V163.9C452.7 166.1 450.6 167.1 447.9 167.1C445.6 167.1 443.7 166.3 442.1 164.6C440.5 162.9 439.7 160.9 439.7 158.5C439.7 156.1 440.5 154.1 442.1 152.4C443.7 150.7 445.7 149.9 447.9 149.9C450.6 149.9 452.7 151 454.1 153.1V150.4ZM448.3 164.4C450 164.4 451.3 163.8 452.4 162.7C453.5 161.6 454.1 160.2 454.1 158.5C454.1 156.8 453.5 155.5 452.4 154.3C451.3 153.2 449.9 152.6 448.3 152.6C446.7 152.6 445.3 153.2 444.2 154.3C443.1 155.4 442.5 156.8 442.5 158.5C442.5 160.2 443.1 161.5 444.2 162.7C445.3 163.8 446.6 164.4 448.3 164.4Z" fill="white"/>
<path d="M471.2 149.9C473.5 149.9 475.4 150.7 477 152.4C478.6 154.1 479.4 156.1 479.4 158.5C479.4 160.9 478.6 162.9 477 164.6C475.4 166.3 473.4 167.1 471.2 167.1C468.5 167.1 466.4 166 465 163.9V173.3H462.2V150.4H465V153.2C466.5 151 468.5 149.9 471.2 149.9ZM470.9 164.4C472.5 164.4 473.9 163.8 475 162.7C476.1 161.6 476.7 160.2 476.7 158.5C476.7 156.8 476.1 155.5 475 154.3C473.9 153.1 472.5 152.6 470.9 152.6C469.2 152.6 467.9 153.2 466.7 154.3C465.5 155.4 465 156.8 465 158.5C465 160.2 465.6 161.5 466.7 162.7C467.8 163.8 469.2 164.4 470.9 164.4Z" fill="white"/>
<path d="M495.7 150.4H498V166.7H495.2V155.2L486.1 166.7H483.8V150.4H486.6V161.9L495.7 150.4Z" fill="white"/>
<path d="M513.6 150.4H516.4V166.7H513.6V160.8C512.3 161.4 510.8 161.7 509.2 161.7C507.1 161.7 505.5 161.2 504.3 160.2C503.2 159.2 502.6 157.7 502.6 155.8V150.4H505.4V155.7C505.4 156.9 505.7 157.8 506.4 158.3C507.1 158.8 508 159.1 509.3 159.1C510.8 159.1 512.3 158.8 513.5 158.2V150.4H513.6Z" fill="white"/>
<path d="M523.7 159.8C524 161.3 524.7 162.4 525.7 163.2C526.8 164 528.1 164.4 529.6 164.4C531.8 164.4 533.3 163.6 534.3 162L536.7 163.4C535.1 165.9 532.7 167.1 529.5 167.1C526.9 167.1 524.8 166.3 523.2 164.7C521.6 163.1 520.8 161 520.8 158.5C520.8 156 521.6 154 523.2 152.4C524.8 150.8 526.8 149.9 529.4 149.9C531.8 149.9 533.8 150.7 535.3 152.4C536.8 154.1 537.6 156.1 537.6 158.5C537.6 158.9 537.6 159.3 537.5 159.8H523.7ZM529.4 152.6C527.9 152.6 526.6 153 525.6 153.9C524.6 154.8 524 155.9 523.7 157.3H534.6C534.4 155.8 533.8 154.6 532.8 153.8C531.8 153 530.7 152.6 529.4 152.6Z" fill="white"/>
<path d="M552.7 158.3C554.4 159 555.2 160.3 555.2 162.1C555.2 163.5 554.7 164.6 553.8 165.4C552.9 166.3 551.6 166.7 549.9 166.7H541.7V150.4H549.2C550.8 150.4 552.1 150.8 553 151.6C553.9 152.4 554.3 153.5 554.3 154.8C554.4 156.4 553.8 157.5 552.7 158.3ZM549.2 152.9H544.6V157.2H549.2C550.9 157.2 551.7 156.5 551.7 155C551.6 153.6 550.8 152.9 549.2 152.9ZM549.8 164.1C550.6 164.1 551.3 163.9 551.7 163.5C552.1 163.1 552.4 162.6 552.4 161.8C552.4 161.1 552.2 160.6 551.7 160.2C551.3 159.8 550.6 159.6 549.8 159.6H544.6V164H549.8V164.1Z" fill="white"/>
<path d="M573 164.6C571.3 166.3 569.3 167.1 566.9 167.1C564.5 167.1 562.5 166.3 560.8 164.6C559.1 162.9 558.3 160.9 558.3 158.5C558.3 156.1 559.1 154 560.8 152.4C562.5 150.7 564.5 149.9 566.9 149.9C569.3 149.9 571.3 150.7 573 152.4C574.7 154.1 575.5 156.1 575.5 158.5C575.5 161 574.7 163 573 164.6ZM566.9 164.4C568.5 164.4 569.9 163.8 571 162.7C572.1 161.6 572.7 160.2 572.7 158.5C572.7 156.8 572.1 155.5 571 154.3C569.9 153.2 568.5 152.6 566.9 152.6C565.3 152.6 563.9 153.2 562.8 154.3C561.7 155.4 561.1 156.8 561.1 158.5C561.1 160.2 561.7 161.5 562.8 162.7C563.9 163.8 565.3 164.4 566.9 164.4Z" fill="white"/>
<path d="M591.7 150.4H594V166.7H591.2V155.2L582.1 166.7H579.8V150.4H582.6V161.9L591.7 150.4ZM582.6 147.9V145.4H591.4V147.9H582.6Z" fill="white"/>
<path d="M24.4 111.4C37.8757 111.4 48.8 100.476 48.8 87C48.8 73.5242 37.8757 62.6 24.4 62.6C10.9243 62.6 0 73.5242 0 87C0 100.476 10.9243 111.4 24.4 111.4Z" fill="#E9856F"/>
<path d="M143 111.4C156.421 111.4 167.3 100.521 167.3 87.1C167.3 73.6795 156.421 62.8 143 62.8C129.58 62.8 118.7 73.6795 118.7 87.1C118.7 100.521 129.58 111.4 143 111.4Z" fill="white"/>
<path d="M143 55.6C156.421 55.6 167.3 44.7205 167.3 31.3C167.3 17.8795 156.421 7 143 7C129.58 7 118.7 17.8795 118.7 31.3C118.7 44.7205 129.58 55.6 143 55.6Z" fill="white"/>
<path d="M200.6 111.4C214.02 111.4 224.9 100.521 224.9 87.1C224.9 73.6795 214.02 62.8 200.6 62.8C187.179 62.8 176.3 73.6795 176.3 87.1C176.3 100.521 187.179 111.4 200.6 111.4Z" fill="white"/>
<path d="M200.6 55.6C214.02 55.6 224.9 44.7205 224.9 31.3C224.9 17.8795 214.02 7 200.6 7C187.179 7 176.3 17.8795 176.3 31.3C176.3 44.7205 187.179 55.6 200.6 55.6Z" fill="white"/>
<path d="M0.299805 55.7H7.2998V28.7C2.8998 36.7 0.299805 45.9 0.299805 55.7Z" fill="white"/>
<path d="M14.2002 18.9V55.7H21.2002V12.2C18.7002 14.3 16.4002 16.5 14.2002 18.9Z" fill="white"/>
<path d="M28.2002 7.5V55.7H35.2002V4C32.7002 5.1 30.4002 6.2 28.2002 7.5Z" fill="white"/>
<path d="M42.1001 1.80003V55.7H49.1001V0.400024C46.7001 0.800024 44.4001 1.20003 42.1001 1.80003Z" fill="white"/>
<path d="M165.6 125.3C166.2 123 166.6 120.7 166.9 118.3H111.7V111.4V55.7C111.7 86.5 86.8 111.4 56 111.4C56 121.7 58.8 131.4 63.7 139.6C64 140.2 64.4 140.7 64.7 141.2C65.6 142.7 66.6 144.1 67.7 145.4C77.9 158.5 93.8 167 111.7 167C121.5 167 130.7 164.5 138.7 160H111.7V153H148.5C150.9 150.9 153.1 148.5 155.1 146H111.7V139H159.9C161.2 136.8 162.3 134.4 163.3 132H111.7V125H165.6V125.3Z" fill="white"/>
<path d="M56 0V111.4C86.7 111.4 111.7 86.5 111.7 55.7C111.7 24.9 86.7 0 56 0Z" fill="#E9856F"/>
<path d="M319.8 11.3V50.3H274.1V11.3H283V41.8H292.5V11.3H301.4V41.8H310.9V11.3H319.8Z" fill="white"/>
<path d="M345.2 50.3L336.3 38V50.3H327.9V22.4H336.3V34.6L344.7 22.4H354.5L344.4 36.3L354.8 50.2H345.2V50.3Z" fill="white"/>
<path d="M356.3 36.3999C356.3 28.0999 362.9 21.7 371.1 21.7C379.3 21.7 385.9 28.0999 385.9 36.3999C385.9 44.6999 379.3 51.1 371.1 51.1C362.9 51.1 356.3 44.6999 356.3 36.3999ZM377.5 36.3999C377.5 32.3999 374.7 29.8 371.1 29.8C367.5 29.8 364.7 32.3999 364.7 36.3999C364.7 40.3999 367.5 43 371.1 43C374.7 42.9 377.5 40.2999 377.5 36.3999Z" fill="white"/>
<path d="M416 50.3H407.6V30.4H401.6V38.7C401.6 47.1 397.4 51.2 389.2 50.2V42.4C391.8 43.2 393.2 41.6 393.2 38.1V22.3H415.9V50.3H416Z" fill="white"/>
<path d="M452.4 22.3999V50.2999H444V47.7C442.2 49.8 439.4 51.1 435.7 51.1C428.4 51.1 422.4 44.6999 422.4 36.3999C422.4 28.0999 428.4 21.7 435.7 21.7C439.4 21.7 442.2 23 444 25.1V22.5H452.4V22.3999ZM444 36.3999C444 32.1999 441.2 29.6 437.4 29.6C433.6 29.6 430.8 32.1999 430.8 36.3999C430.8 40.5999 433.6 43.2 437.4 43.2C441.2 43.2 444 40.4999 444 36.3999Z" fill="white"/>
<path d="M303.7 111.7H294.8V81.2H283.1V111.7H274.1V72.7H303.6V111.7H303.7Z" fill="white"/>
<path d="M341.7 97.8C341.7 106.1 335.7 112.5 328.4 112.5C324.7 112.5 321.9 111.2 320.1 109.1V122.9H311.7V83.9H320.1V86.5C321.9 84.4 324.7 83.1 328.4 83.1C335.7 83.1 341.7 89.5 341.7 97.8ZM333.4 97.8C333.4 93.6 330.6 91 326.8 91C323 91 320.2 93.6 320.2 97.8C320.2 102 323 104.6 326.8 104.6C330.6 104.6 333.4 102 333.4 97.8Z" fill="white"/>
<path d="M346.7 97.8C346.7 89.5 353.3 83.1 361.5 83.1C369.7 83.1 376.3 89.5 376.3 97.8C376.3 106.1 369.7 112.5 361.5 112.5C353.3 112.5 346.7 106.1 346.7 97.8ZM367.9 97.8C367.9 93.8 365.1 91.2 361.5 91.2C357.9 91.2 355.1 93.8 355.1 97.8C355.1 101.8 357.9 104.4 361.5 104.4C365.1 104.4 367.9 101.8 367.9 97.8Z" fill="white"/>
<path d="M410.8 103.9V119.2H402.7V111.7H387.2V119.2H379.1V103.9H382.6C384 101.7 384.8 99 384.8 94.3V83.9H407.3V104H410.8V103.9ZM399.1 103.9V91.3H392.9V94.3C392.9 98.4 392.3 101.4 391.3 103.9H399.1Z" fill="white"/>
<path d="M457.4 97.8C457.4 106.1 450.8 112.5 442.6 112.5C435.7 112.5 430.2 108 428.6 101.7H425.1V111.7H416.7V83.8H425.1V93.8H428.6C430.2 87.4 435.8 83 442.6 83C450.8 83.1 457.4 89.5 457.4 97.8ZM449 97.8C449 93.8 446.2 91.2 442.6 91.2C439 91.2 436.2 93.8 436.2 97.8C436.2 101.8 439 104.4 442.6 104.4C446.2 104.4 449 101.8 449 97.8Z" fill="white"/>
<path d="M462.4 97.8C462.4 89.5 468.7 83.1 477.2 83.1C482.6 83.1 487.4 85.9 489.8 90.2L482.5 94.4C481.6 92.4 479.5 91.3 477.1 91.3C473.5 91.3 470.8 93.9 470.8 97.8C470.8 101.6 473.5 104.3 477.1 104.3C479.6 104.3 481.6 103.1 482.5 101.2L489.8 105.4C487.4 109.8 482.7 112.6 477.2 112.6C468.7 112.5 462.4 106.1 462.4 97.8Z" fill="white"/>
<path d="M508.4 105.1C510.7 105.1 512.6 104.2 513.8 103L520.5 106.8C517.8 110.6 513.6 112.5 508.3 112.5C498.8 112.5 492.9 106.1 492.9 97.8C492.9 89.5 498.9 83.1 507.7 83.1C515.8 83.1 521.9 89.4 521.9 97.8C521.9 99 521.8 100.1 521.6 101.1H501.8C502.8 104 505.3 105.1 508.4 105.1ZM513.5 94.9C512.6 91.7 510.1 90.5 507.6 90.5C504.4 90.5 502.3 92.1 501.5 94.9H513.5Z" fill="white"/>
<path d="M558.2 97.8C558.2 106.1 552.2 112.5 544.9 112.5C541.2 112.5 538.4 111.2 536.6 109.1V122.9H528.2V83.9H536.6V86.5C538.4 84.4 541.2 83.1 544.9 83.1C552.2 83.1 558.2 89.5 558.2 97.8ZM549.9 97.8C549.9 93.6 547.1 91 543.3 91C539.5 91 536.7 93.6 536.7 97.8C536.7 102 539.5 104.6 543.3 104.6C547.1 104.6 549.9 102 549.9 97.8Z" fill="white"/>
<path d="M593.2 83.9V111.8H584.8V109.2C583 111.3 580.2 112.6 576.5 112.6C569.2 112.6 563.2 106.2 563.2 97.9C563.2 89.6 569.2 83.2 576.5 83.2C580.2 83.2 583 84.5 584.8 86.6V84H593.2V83.9ZM584.9 97.8C584.9 93.6 582.1 91 578.3 91C574.5 91 571.7 93.6 571.7 97.8C571.7 102 574.5 104.6 578.3 104.6C582.1 104.6 584.9 102 584.9 97.8Z" fill="white"/>
</svg>
