<svg width="34" height="34" viewBox="0 0 34 34" fill="none" xmlns="http://www.w3.org/2000/svg">
<path fill-rule="evenodd" clip-rule="evenodd" d="M17 34C26.3888 34 34 26.3888 34 17C34 7.61116 26.3888 0 17 0C7.61116 0 0 7.61116 0 17C0 26.3888 7.61116 34 17 34ZM22.5508 22.9107L24.97 11.5016C25.1847 10.496 24.6085 10.1024 23.9501 10.3493L9.72813 15.8283C8.75834 16.2077 8.77263 16.7516 9.56353 16.9986L13.1995 18.1366L21.6454 12.8186C22.0426 12.5538 22.4041 12.7005 22.107 12.9653L15.2752 19.1387L15.0104 22.8929C15.3897 22.8929 15.5544 22.7282 15.7512 22.5314L17.5298 20.8207L21.2159 23.537C21.8923 23.9163 22.3683 23.7159 22.5508 22.9107Z" fill="white"/>
</svg>
