<svg width="274" height="340" viewBox="0 0 274 340" fill="none" xmlns="http://www.w3.org/2000/svg">
<g id="woman copy">
<g id="Combined Shape">
<path fill-rule="evenodd" clip-rule="evenodd" d="M140.416 24.9849C144.829 10.6394 157.872 1 172.871 1C176.248 1 179.611 1.50654 182.867 2.50761C191.538 5.1756 198.652 11.0602 202.897 19.0778C207.142 27.0968 208.01 36.2882 205.342 44.9581L191.452 90.1141C190.708 92.5296 188.509 94.1529 185.979 94.1529C183.982 94.1529 182.163 93.1354 181.114 91.4338L180.102 89.7955C173.804 79.5819 162.881 73.4854 150.882 73.4854C146.949 73.4854 143.065 74.1588 139.34 75.4905L133.845 77.455C133.221 77.6775 132.571 77.7902 131.915 77.7902C130.109 77.7902 128.39 76.9199 127.314 75.4619C126.242 74.0099 125.919 72.1115 126.451 70.3845L140.416 24.9849Z" fill="#1B1919"/>
<path d="M140.416 24.9849L139.46 24.6909L139.46 24.6909L140.416 24.9849ZM182.867 2.50761L183.161 1.55182L183.16 1.55177L182.867 2.50761ZM202.897 19.0778L203.781 18.6099L203.781 18.6098L202.897 19.0778ZM205.342 44.9581L204.387 44.664L204.387 44.6641L205.342 44.9581ZM191.452 90.1141L192.408 90.4085L192.408 90.4081L191.452 90.1141ZM181.114 91.4338L181.965 90.909L181.965 90.9085L181.114 91.4338ZM180.102 89.7955L179.251 90.3203L179.251 90.3208L180.102 89.7955ZM139.34 75.4905L139.676 76.4321L139.677 76.4321L139.34 75.4905ZM133.845 77.455L134.18 78.3969L134.181 78.3967L133.845 77.455ZM127.314 75.4619L126.509 76.0558L126.509 76.0558L127.314 75.4619ZM126.451 70.3845L127.406 70.6789L127.407 70.6785L126.451 70.3845ZM172.871 0C157.432 0 144.002 9.92614 139.46 24.6909L141.372 25.279C145.656 11.3526 158.311 2 172.871 2V0ZM183.16 1.55177C179.81 0.521629 176.349 0 172.871 0V2C176.148 2 179.412 2.49146 182.573 3.46344L183.16 1.55177ZM203.781 18.6098C199.412 10.3579 192.085 4.29779 183.161 1.55182L182.572 3.46339C190.99 6.05342 197.892 11.7626 202.013 19.5457L203.781 18.6098ZM206.298 45.2522C209.044 36.3288 208.149 26.8632 203.781 18.6099L202.013 19.5456C206.134 27.3303 206.977 36.2477 204.387 44.664L206.298 45.2522ZM192.408 90.4081L206.298 45.2521L204.387 44.6641L190.496 89.8201L192.408 90.4081ZM185.979 95.1529C188.948 95.1529 191.535 93.2437 192.408 90.4085L190.497 89.8197C189.882 91.8155 188.071 93.1529 185.979 93.1529V95.1529ZM180.263 91.9587C181.494 93.9547 183.634 95.1529 185.979 95.1529V93.1529C184.33 93.1529 182.833 92.316 181.965 90.909L180.263 91.9587ZM179.251 90.3208L180.263 91.9592L181.965 90.9085L180.953 89.2701L179.251 90.3208ZM150.882 74.4854C162.534 74.4854 173.135 80.4021 179.251 90.3203L180.954 89.2706C174.473 78.7617 163.228 72.4854 150.882 72.4854V74.4854ZM139.677 76.4321C143.293 75.1389 147.064 74.4854 150.882 74.4854V72.4854C146.833 72.4854 142.836 73.1786 139.003 74.5489L139.677 76.4321ZM134.181 78.3967L139.676 76.4321L139.003 74.5489L133.508 76.5134L134.181 78.3967ZM131.915 78.7902C132.687 78.7902 133.45 78.6575 134.18 78.3969L133.509 76.5131C132.992 76.6975 132.456 76.7902 131.915 76.7902V78.7902ZM126.509 76.0558C127.773 77.768 129.79 78.7902 131.915 78.7902V76.7902C130.428 76.7902 129.007 76.0719 128.118 74.8681L126.509 76.0558ZM125.495 70.09C124.87 72.1203 125.249 74.3484 126.509 76.0558L128.118 74.8681C127.235 73.6715 126.968 72.1028 127.406 70.6789L125.495 70.09ZM139.46 24.6909L125.495 70.0905L127.407 70.6785L141.372 25.2789L139.46 24.6909Z" fill="#FFFFFE"/>
</g>
<path id="Fill 114" fill-rule="evenodd" clip-rule="evenodd" d="M137.44 99.9219L159.218 151.631L175.66 102.765L137.44 99.9219Z" fill="#FFFFFE"/>
<path id="Fill 115" fill-rule="evenodd" clip-rule="evenodd" d="M65.4971 300.556L66.0126 293.27L193.674 293.37L216.128 308.796L136.152 329.241L65.4971 300.556Z" fill="#FFFFFE"/>
<path id="Fill 116" fill-rule="evenodd" clip-rule="evenodd" d="M65.737 298.913L134.184 326.063L208.536 307.491L190.865 295.628L65.982 295.534L65.737 298.913ZM133.869 330.79L61.0007 301.884L61.7869 291.021L192.241 291.121L219.48 309.404L133.869 330.79Z" fill="#0A0B09"/>
<g id="Fill 123">
<path fill-rule="evenodd" clip-rule="evenodd" d="M208.175 227.645L211.539 198.385L214.57 214.901L208.175 227.645ZM83.5619 169.25L86.4177 224.821L56.2776 202.199L83.5619 169.25ZM247.634 189.246L220.115 120.019C219.252 112.238 212.956 105.876 204.803 105.287L100.264 97.7221C93.6461 97.2426 87.6984 100.374 84.1751 105.343C84.1676 105.338 12.4699 191.595 12.4699 191.595C3.28293 202.649 6.09071 219.288 18.3966 226.715L80.1874 256.06L65.5728 292.992L196.327 300.77L201.265 273.203L246.338 236.019C258.646 228.592 255.047 207.678 247.634 189.246Z" fill="#1B1919"/>
<path d="M208.175 227.645L207.181 227.531L209.068 228.094L208.175 227.645ZM211.539 198.385L212.522 198.204L210.545 198.27L211.539 198.385ZM214.57 214.901L215.464 215.349L215.614 215.05L215.554 214.72L214.57 214.901ZM83.5619 169.25L84.5605 169.199L84.4288 166.635L82.7916 168.612L83.5619 169.25ZM86.4177 224.821L85.8175 225.621L87.5261 226.903L87.4164 224.77L86.4177 224.821ZM56.2776 202.199L55.5074 201.562L54.8384 202.37L55.6773 202.999L56.2776 202.199ZM220.115 120.019L219.121 120.129L219.136 120.263L219.186 120.388L220.115 120.019ZM204.803 105.287L204.731 106.285L204.731 106.285L204.803 105.287ZM100.264 97.7221L100.192 98.7195L100.192 98.7195L100.264 97.7221ZM84.1751 105.343L83.6606 106.2L84.455 106.677L84.9909 105.921L84.1751 105.343ZM12.4699 191.595L11.7008 190.956L11.7008 190.956L12.4699 191.595ZM18.3966 226.715L17.8799 227.571L17.9225 227.597L17.9676 227.618L18.3966 226.715ZM80.1874 256.06L81.1172 256.428L81.4615 255.558L80.6164 255.157L80.1874 256.06ZM65.5728 292.992L64.6429 292.625L64.1348 293.909L65.5134 293.991L65.5728 292.992ZM196.327 300.77L196.268 301.768L197.155 301.821L197.312 300.946L196.327 300.77ZM201.265 273.203L200.629 272.431L200.345 272.665L200.281 273.026L201.265 273.203ZM246.338 236.019L245.822 235.163L245.759 235.201L245.702 235.248L246.338 236.019ZM209.168 227.76L212.532 198.499L210.545 198.27L207.181 227.531L209.168 227.76ZM210.555 198.565L213.587 215.081L215.554 214.72L212.522 198.204L210.555 198.565ZM213.677 214.452L207.281 227.197L209.068 228.094L215.464 215.349L213.677 214.452ZM82.5632 169.301L85.4191 224.872L87.4164 224.77L84.5605 169.199L82.5632 169.301ZM87.018 224.021L56.8779 201.4L55.6773 202.999L85.8175 225.621L87.018 224.021ZM57.0478 202.837L84.3321 169.888L82.7916 168.612L55.5074 201.562L57.0478 202.837ZM248.563 188.876L221.044 119.65L219.186 120.388L246.705 189.615L248.563 188.876ZM221.109 119.909C220.195 111.66 213.521 104.915 204.875 104.29L204.731 106.285C212.391 106.838 218.31 112.815 219.121 120.129L221.109 119.909ZM204.875 104.29L100.336 96.7247L100.192 98.7195L204.731 106.285L204.875 104.29ZM100.337 96.7247C93.3498 96.2185 87.0733 99.5263 83.3593 104.764L84.9909 105.921C88.3235 101.221 93.9425 98.2667 100.192 98.7195L100.337 96.7247ZM84.6896 104.485C84.0268 104.354 83.4249 104.682 83.4179 104.69C83.4152 104.693 83.4112 104.697 83.409 104.7C83.4052 104.705 83.4006 104.71 83.396 104.715C83.3864 104.727 83.3727 104.743 83.3553 104.764C83.3203 104.806 83.2685 104.868 83.2005 104.95C83.0644 105.113 82.8627 105.355 82.5999 105.671C82.0743 106.303 81.3036 107.229 80.323 108.408C78.3618 110.766 75.5604 114.136 72.199 118.179C65.4763 126.264 56.5134 137.046 47.5507 147.828C38.588 158.61 29.6255 169.392 22.9037 177.478C19.5428 181.522 16.7421 184.891 14.7816 187.249C13.8014 188.429 13.0312 189.355 12.506 189.987C12.2435 190.303 12.0422 190.545 11.9065 190.708C11.8387 190.79 11.7873 190.852 11.7528 190.893C11.7356 190.914 11.7226 190.93 11.7139 190.94C11.7096 190.945 11.7063 190.949 11.7041 190.952C11.703 190.953 11.7022 190.954 11.7017 190.955C11.7011 190.956 11.7008 190.956 12.4699 191.595C13.2389 192.234 13.2392 192.234 13.2397 192.233C13.2402 192.233 13.2411 192.232 13.2422 192.23C13.2443 192.228 13.2476 192.224 13.2519 192.219C13.2606 192.208 13.2736 192.192 13.2908 192.172C13.3253 192.13 13.3767 192.068 13.4446 191.987C13.5802 191.824 13.7815 191.581 14.0441 191.266C14.5692 190.634 15.3394 189.707 16.3197 188.528C18.2802 186.169 21.0809 182.8 24.4418 178.757C31.1635 170.67 40.126 159.888 49.0887 149.106C58.0513 138.325 67.0142 127.543 73.7369 119.457C77.0983 115.414 79.8996 112.045 81.8607 109.687C82.8413 108.508 83.6118 107.582 84.1372 106.95C84.4 106.635 84.6013 106.393 84.737 106.23C84.8049 106.149 84.8561 106.087 84.8903 106.046C84.9074 106.026 84.9198 106.011 84.9278 106.001C84.9319 105.996 84.9339 105.994 84.9344 105.993C84.9345 105.993 84.9321 105.996 84.9305 105.998C84.9247 106.005 84.3234 106.332 83.6606 106.2L84.6896 104.485ZM11.7008 190.956C2.12271 202.48 5.05003 219.828 17.8799 227.571L18.9133 225.859C7.13139 218.748 4.44315 202.817 13.2389 192.234L11.7008 190.956ZM17.9676 227.618L79.7584 256.963L80.6164 255.157L18.8256 225.812L17.9676 227.618ZM79.2575 255.692L64.6429 292.625L66.5026 293.36L81.1172 256.428L79.2575 255.692ZM65.5134 293.991L196.268 301.768L196.387 299.771L65.6322 291.994L65.5134 293.991ZM197.312 300.946L202.249 273.379L200.281 273.026L195.343 300.593L197.312 300.946ZM201.901 273.974L246.975 236.79L245.702 235.248L200.629 272.431L201.901 273.974ZM246.855 236.875C253.468 232.884 255.674 225.332 255.381 216.726C255.087 208.099 252.289 198.14 248.562 188.873L246.706 189.619C250.392 198.784 253.1 208.498 253.382 216.794C253.665 225.109 251.516 231.727 245.822 235.163L246.855 236.875Z" fill="#FFFFFE"/>
</g>
<path id="Fill 125" fill-rule="evenodd" clip-rule="evenodd" d="M138.496 264.043L152.084 267.869C156.439 269.096 160.112 272.189 162.216 276.404L168.805 289.604C169.232 290.459 168.335 291.37 167.545 290.887L152.784 281.854C151.247 280.914 149.341 280.964 147.852 281.984C144.512 284.271 140.316 284.658 136.652 283.014L130.696 280.341L138.496 264.043Z" fill="#FFFFFE"/>
<g id="Fill 117">
<path fill-rule="evenodd" clip-rule="evenodd" d="M27.0176 284.01L18.059 287.775C7.23118 292.329 0.954744 303.716 2.89763 315.29L4.69025 325.975C6.49489 336.717 13.0869 340.582 21.6338 341.871L211.889 367.46L216.128 351.534L46.0363 283.75C39.9041 281.366 33.0837 281.46 27.0176 284.01Z" fill="#FFFFFE"/>
<path d="M27.0176 284.01L18.059 287.775C7.23118 292.329 0.954744 303.716 2.89763 315.29L4.69025 325.975C6.49489 336.717 13.0869 340.582 21.6338 341.871L211.889 367.46L216.128 351.534L46.0363 283.75C39.9041 281.366 33.0837 281.46 27.0176 284.01" stroke="#0A0B09" stroke-width="1.5"/>
</g>
<g id="Fill 119">
<path fill-rule="evenodd" clip-rule="evenodd" d="M49.7595 355.548L217.115 294.393C221.286 292.967 225.792 292.897 230.004 294.192L243.879 298.462C254.733 301.802 261.035 313.23 258.142 324.332L255.795 333.348C253.629 341.66 246.748 347.848 238.336 349.046L56.149 367.461L49.7595 355.548Z" fill="#FFFFFE"/>
<path d="M49.7595 355.548L217.115 294.393C221.286 292.967 225.792 292.897 230.004 294.192L243.879 298.462C254.733 301.802 261.035 313.23 258.142 324.332L255.795 333.348C253.629 341.66 246.748 347.848 238.336 349.046L56.149 367.461L49.7595 355.548" stroke="#0A0B09" stroke-width="1.5"/>
</g>
<path id="Fill 126" fill-rule="evenodd" clip-rule="evenodd" d="M269.641 302.262H158.118C156.011 302.262 154.302 300.752 154.302 298.89C154.302 297.028 156.011 295.518 158.118 295.518H273.458V298.89C273.458 300.752 271.749 302.262 269.641 302.262Z" fill="#1B1919"/>
<path id="Fill 127" fill-rule="evenodd" clip-rule="evenodd" d="M264.87 295.517H163.7V240.679C163.7 236.198 167.322 232.566 171.791 232.566H256.779C261.248 232.566 264.87 236.198 264.87 240.679V295.517Z" fill="#FFFFFE"/>
<path id="Fill 128" fill-rule="evenodd" clip-rule="evenodd" d="M165.961 292.592H261.798V240.598C261.798 237.416 259.21 234.828 256.028 234.828H171.731C168.549 234.828 165.961 237.416 165.961 240.598V292.592ZM266.308 297.101H161.452V240.598C161.452 234.93 166.063 230.318 171.731 230.318H256.028C261.696 230.318 266.308 234.93 266.308 240.598V297.101Z" fill="#1B1919"/>
<g id="Combined Shape_2">
<path fill-rule="evenodd" clip-rule="evenodd" d="M151.861 39.6109L157.643 21.2344L198.142 33.4154L190.4 58.0219C188.179 65.0783 182.66 70.2387 176.011 72.4269L176.955 104.793L158.881 115.66L137.44 101.999L149.28 66.5704C146.698 63.4774 145.69 59.2233 146.981 55.1213L148.496 50.3054C148.382 50.2778 148.267 50.2465 148.153 50.2113C145.187 49.2987 143.522 46.1542 144.435 43.1884C145.347 40.2227 148.492 38.5574 151.458 39.4701C151.595 39.5123 151.729 39.5593 151.861 39.6109Z" fill="#FFFFFE"/>
<path d="M157.643 21.2344L158.075 19.7979L156.656 19.3713L156.212 20.7842L157.643 21.2344ZM151.861 39.6109L151.314 41.0075L152.81 41.5937L153.292 40.0611L151.861 39.6109ZM198.142 33.4154L199.573 33.8656L200.029 32.4165L198.574 31.979L198.142 33.4154ZM190.4 58.0219L191.831 58.4723L191.831 58.4721L190.4 58.0219ZM176.011 72.4269L175.542 71.0021L174.479 71.3519L174.512 72.4706L176.011 72.4269ZM176.955 104.793L177.728 106.079L178.48 105.627L178.454 104.75L176.955 104.793ZM158.881 115.66L158.075 116.925L158.858 117.424L159.654 116.945L158.881 115.66ZM137.44 101.999L136.018 101.523L135.646 102.634L136.634 103.264L137.44 101.999ZM149.28 66.5704L150.703 67.0459L150.968 66.2517L150.432 65.609L149.28 66.5704ZM146.981 55.1213L148.412 55.5717L148.412 55.5714L146.981 55.1213ZM148.496 50.3054L149.927 50.7555L150.409 49.2229L148.847 48.847L148.496 50.3054ZM148.153 50.2113L148.594 48.7777L148.594 48.7777L148.153 50.2113ZM144.435 43.1884L145.868 43.6296L144.435 43.1884ZM151.458 39.4701L151.899 38.0364H151.899L151.458 39.4701ZM156.212 20.7842L150.43 39.1607L153.292 40.0611L159.074 21.6846L156.212 20.7842ZM198.574 31.979L158.075 19.7979L157.211 22.6708L197.71 34.8518L198.574 31.979ZM191.831 58.4721L199.573 33.8656L196.711 32.9652L188.969 57.5717L191.831 58.4721ZM176.48 73.8517C183.555 71.5234 189.455 66.0215 191.831 58.4723L188.969 57.5715C186.903 64.1352 181.765 68.9541 175.542 71.0021L176.48 73.8517ZM178.454 104.75L177.51 72.3832L174.512 72.4706L175.455 104.837L178.454 104.75ZM159.654 116.945L177.728 106.079L176.182 103.508L158.108 114.374L159.654 116.945ZM136.634 103.264L158.075 116.925L159.687 114.395L138.246 100.734L136.634 103.264ZM147.858 66.095L136.018 101.523L138.863 102.474L150.703 67.0459L147.858 66.095ZM145.55 54.6708C144.097 59.2866 145.237 64.0681 148.129 67.5318L150.432 65.609C148.159 62.8868 147.282 59.1601 148.412 55.5717L145.55 54.6708ZM147.065 49.8552L145.55 54.6711L148.412 55.5714L149.927 50.7555L147.065 49.8552ZM148.847 48.847C148.763 48.8267 148.679 48.8036 148.594 48.7777L147.712 51.645C147.856 51.6893 148.001 51.7289 148.145 51.7637L148.847 48.847ZM148.594 48.7777C146.42 48.1086 145.2 45.8033 145.868 43.6296L143.001 42.7473C141.845 46.505 143.955 50.4888 147.712 51.645L148.594 48.7777ZM145.868 43.6296C146.538 41.4554 148.843 40.2348 151.017 40.9037L151.899 38.0364C148.141 36.88 144.157 38.99 143.001 42.7473L145.868 43.6296ZM151.017 40.9037C151.118 40.9349 151.217 40.9696 151.314 41.0075L152.408 38.2143C152.242 38.1491 152.072 38.0897 151.899 38.0364L151.017 40.9037Z" fill="#1B1919"/>
</g>
<path id="Fill 131" fill-rule="evenodd" clip-rule="evenodd" d="M197.925 38.3002C196.211 43.9486 184.855 45.4159 172.558 41.5777C160.263 37.7395 151.683 30.0505 153.395 24.4022C155.107 18.7538 166.465 17.288 178.76 21.1247C191.057 24.963 199.637 32.6519 197.925 38.3002Z" fill="#1B1919"/>
</g>
</svg>
